<svg xmlns="http://www.w3.org/2000/svg" viewBox="0 0 64 64"><g id="_30-Circle" data-name="30-Circle"><path d="M3,39a20,20,0,0,0,40,0v4A20,20,0,0,1,3,43Z" style="fill:#1c69a1"/><path d="M33,30v4H23c-5.81,0-8.81,5.63-8.99,5.98-.01-.16-.01-.32-.01-.48A9.5,9.5,0,0,1,23.5,30Z" style="fill:#15507a"/><polygon points="61 30 59 34 43 34 43 30 61 30" style="fill:#15507a"/><path d="M48.99,12.041l-.984,3.934a.032.032,0,0,1-.032.025H43.033A.033.033,0,0,1,43,15.967V12.033A.033.033,0,0,1,43.033,12h5.924A.033.033,0,0,1,48.99,12.041Z" style="fill:#1c69a1"/><polygon points="33 12 33 16 28 16 27 12 33 12" style="fill:#15507a"/><polygon points="49 12 43 12 43 16 43 19 33 19 33 16 33 12 27 12 38 1 49 12" style="fill:#319aeb"/><path d="M43,19H23A20,20,0,1,0,43,39V30H33v9c0,5.25-4.25,10-9.5,10a9.5,9.5,0,0,1-9.49-9.01v-.01c-.01-.16-.01-.32-.01-.48A9.5,9.5,0,0,1,23.5,30H61V19Z" style="fill:#48befd"/><path d="M33,34v5c0,5.25-4.25,10-9.5,10a9.5,9.5,0,0,1-9.49-9.01v-.01c-.01-.16-.01-.32-.01-.48A9.5,9.5,0,0,1,23.5,30h-5A9.5,9.5,0,0,0,9,39.5a14.5,14.5,0,0,0,29,0V38a4,4,0,0,1,4-4h1V30H33Z" style="fill:#319aeb"/><path d="M29,19H61a0,0,0,0,1,0,0v6a0,0,0,0,1,0,0H29a3,3,0,0,1-3-3v0A3,3,0,0,1,29,19Z" style="fill:#6bdcff"/><path d="M25,60.5a2.472,2.472,0,0,0-.571-1.572c-.474.033-.946.072-1.429.072A19.994,19.994,0,0,1,3,39v4A19.983,19.983,0,0,0,22.667,62.983,2.493,2.493,0,0,0,25,60.5Z" style="fill:#15507a"/><path d="M38,1V13.5A2.5,2.5,0,0,0,40.5,16h0A2.5,2.5,0,0,0,43,13.5V12h6Z" style="fill:#48befd"/><path d="M23.5,30H61V19H23A20,20,0,1,0,43,39V30H33v9c0,5.247-4.253,10-9.5,10a9.5,9.5,0,0,1,0-19Z" style="fill:none;stroke:#000;stroke-linejoin:round;stroke-width:2px"/><polygon points="38 1 27 12 33 12 33 19 43 19 43 12 49 12 38 1" style="fill:none;stroke:#000;stroke-linejoin:round;stroke-width:2px"/><polyline points="27 12 28 16 31 16" style="fill:none;stroke:#000;stroke-linejoin:round;stroke-width:2px"/><polyline points="45 16 48 16 49 12" style="fill:none;stroke:#000;stroke-linejoin:round;stroke-width:2px"/><polyline points="50 34 59 34 61 30" style="fill:none;stroke:#000;stroke-linejoin:round;stroke-width:2px"/><line x1="46" y1="34" x2="48" y2="34" style="fill:none;stroke:#000;stroke-linejoin:round;stroke-width:2px"/><path d="M3,39v4H3a20,20,0,0,0,40,0V34" style="fill:none;stroke:#000;stroke-linejoin:round;stroke-width:2px"/><path d="M14,40s3-6,9-6h7" style="fill:none;stroke:#000;stroke-linejoin:round;stroke-width:2px"/></g></svg>